<?xml version="1.0" ?><svg enable-background="new 0 0 24 24" id="Layer_1" version="1.1" viewBox="0 0 24 24" xml:space="preserve" xmlns="http://www.w3.org/2000/svg" xmlns:xlink="http://www.w3.org/1999/xlink"><g><circle cx="12" cy="15" fill="#ffff" r="2"/><path d="M15.6859131,6.7982178c1.2037964-0.1394653,1.8877563-0.3015137,1.9351807-0.3133545   C17.84375,6.4291992,18,6.2294922,18,6c0-3.3085938-2.6914063-6-6-6c-1.5375366,0-2.9371948,0.5861816-4,1.5404663V0.5   C8,0.2236328,7.7763672,0,7.5,0S7,0.2236328,7,0.5v2.1904297C6.3694458,3.6399536,6,4.7772217,6,6   c0,0.2294922,0.15625,0.4291992,0.3789063,0.4848633c0.0474243,0.0118408,0.7313843,0.1738892,1.9351807,0.3133545   C5.1862793,8.2097778,3,11.3516235,3,15c0,4.9624023,4.0375977,9,9,9s9-4.0375977,9-9   C21,11.3516235,18.8137207,8.2097778,15.6859131,6.7982178z M17.0505371,15.5h-2.1010742   C14.7374268,16.7524414,13.7524414,17.7374268,12.5,17.9494629v2.1010742   c1.2302246,0.208313,2.2045898,1.1630249,2.4394531,2.3826294c-0.3128662,0.1242065-0.6359863,0.2262573-0.9666138,0.3105469   C13.8460693,21.7620239,13.0148926,21,12,21c-1.0151367,0-1.8465576,0.7625122-1.9740601,1.7434082   c-0.3302002-0.0842896-0.6529541-0.1862183-0.9653931-0.3102417C9.2954102,21.213562,10.2697754,20.2588501,11.5,20.0505371   v-2.1010742C10.2475586,17.7374268,9.2625732,16.7524414,9.0505371,15.5H6.9494629   c-0.208313,1.2302246-1.1630249,2.2045898-2.3826294,2.4394531c-0.1242065-0.3128662-0.2262573-0.6359863-0.3105469-0.9666748   C5.237793,16.8460083,6,16.0144043,6,15c0-1.0151367-0.7625122-1.8465576-1.7434082-1.9740601   c0.0842896-0.3302002,0.1862183-0.6529541,0.3102417-0.9653931C5.786438,12.2954102,6.7411499,13.2697754,6.9494629,14.5h2.1010742   C9.2625732,13.2475586,10.2475586,12.2625732,11.5,12.0505371V9.9494629   c-1.2302246-0.208313-2.2045898-1.1630249-2.4394531-2.3826294c0.3128662-0.1242065,0.6359863-0.2262573,0.9666138-0.3105469   C10.1539307,8.2379761,10.9851074,9,12,9c1.0151367,0,1.8465576-0.7625122,1.9740601-1.7434082   c0.3302002,0.0842896,0.6529541,0.1862183,0.9653931,0.3102417C14.7045898,8.786438,13.7302246,9.7411499,12.5,9.9494629v2.1010742   c1.2524414,0.2120361,2.2374268,1.1970215,2.4494629,2.4494629h2.1010742   c0.208313-1.2302246,1.1630249-2.2045898,2.3826294-2.4394531c0.1242065,0.3128662,0.2262573,0.6359863,0.3105469,0.9666748   C18.762207,13.1539917,18,13.9855957,18,15c0,1.0151367,0.7625122,1.8465576,1.7434082,1.9740601   c-0.0842896,0.3302002-0.1862183,0.6529541-0.3102417,0.9653931C18.213562,17.7045898,17.2588501,16.7302246,17.0505371,15.5z    M13.5,4C13.776123,4,14,4.2238159,14,4.5C14,4.776123,13.776123,5,13.5,5S13,4.776123,13,4.5C13,4.2238159,13.223877,4,13.5,4z    M12,2c0.5512695,0,1,0.4487305,1,1s-0.4487305,1-1,1s-1-0.4487305-1-1S11.4487305,2,12,2z" fill="#ffff"/></g><g/><g/><g/><g/><g/><g/><g/><g/><g/><g/><g/><g/><g/><g/><g/></svg>