<?xml version="1.0" ?><svg enable-background="new 0 0 24 24" id="Layer_1" version="1.1" viewBox="0 0 24 24" xml:space="preserve" xmlns="http://www.w3.org/2000/svg" xmlns:xlink="http://www.w3.org/1999/xlink"><g><path d="M21.9848633,23.3789063l-1-4C20.9291992,19.15625,20.7294922,19,20.5,19H20v-6.0921021   c0.5807495-0.2070923,1-0.756897,1-1.4078979v-3C21,7.6728516,20.3271484,7,19.5,7H18V6c0-3.3085938-2.6914063-6-6-6   S6,2.6914063,6,6v1H4.5C3.6728516,7,3,7.6728516,3,8.5v3c0,0.651001,0.4192505,1.2008057,1,1.4078979V19H3.5   c-0.2294922,0-0.4291992,0.15625-0.4848633,0.3789063l-1,4c-0.0375977,0.1494141-0.0039063,0.3076172,0.0908203,0.4287109   C2.2006836,23.9291992,2.3461914,24,2.5,24h4C6.7763672,24,7,23.7763672,7,23.5v-6.25177   c0.1731567,0.0620117,0.3756104,0.1265869,0.6109009,0.1941528l0.5819702,1.7182617   c0.043457,0.1274414,0.1367188,0.2324219,0.2583008,0.2905273c0.024353,0.0116577,0.3482056,0.1588745,0.9793701,0.2980957   l-0.4241943,2.6721191c-0.0229492,0.1445313,0.0185547,0.2919922,0.1132813,0.4033203C9.2148438,22.9360352,9.3535156,23,9.5,23h5   c0.1464844,0,0.2851563-0.0639648,0.3803711-0.175293c0.0947266-0.1113281,0.1362305-0.2587891,0.1132813-0.4033203   l-0.4241943-2.6721191c0.6311646-0.1392212,0.9550171-0.286438,0.9793701-0.2980957   c0.1220703-0.0581055,0.2148438-0.1630859,0.2583008-0.2910156l0.5814819-1.7175903   C16.6241455,17.374939,16.8267212,17.3103027,17,17.24823V23.5c0,0.2763672,0.2236328,0.5,0.5,0.5h4   c0.1538086,0,0.2993164-0.0708008,0.394043-0.1923828C21.9887695,23.6865234,22.0224609,23.5283203,21.9848633,23.3789063z M9,14.5   C9,14.2236328,9.2236328,14,9.5,14h5c0.2763672,0,0.5,0.2236328,0.5,0.5S14.7763672,15,14.5,15h-5   C9.2236328,15,9,14.7763672,9,14.5z M14.5,12h-5C9.2236328,12,9,11.7763672,9,11.5S9.2236328,11,9.5,11h5   c0.2763672,0,0.5,0.2236328,0.5,0.5S14.7763672,12,14.5,12z M14.5775757,8.8218384   c-0.0093384,0.0015259-0.0167847,0.0072632-0.0263062,0.0082397c-0.0102539,0.0008545-0.0206909,0.0010376-0.0311279,0.0014648   C13.7998657,8.9319458,12.9627686,9,12,9c-0.9713745,0-1.8134766-0.0695801-2.5380249-0.1714478   c-0.0045166-0.0002441-0.008667,0.0018921-0.0132446,0.0015259C9.439209,8.8291016,9.4317627,8.8233643,9.4224243,8.8218384   C8.3162842,8.663269,7.5206909,8.4329834,7,8.2467651V7.1754761c0.3449097,0.1407471,1.0302124,0.3829956,2.0578613,0.5699463   l0.4445801-4.2966919C9.5288086,3.1938477,9.7436523,3,10,3h4c0.2563477,0,0.4711914,0.1938477,0.4975586,0.4487305   l0.4445801,4.2966919C15.9697876,7.5584717,16.6550903,7.3162231,17,7.1754761v1.0712891   C16.4793091,8.4329834,15.6837158,8.663269,14.5775757,8.8218384z M15,6.5C15,6.2238159,15.223877,6,15.5,6S16,6.2238159,16,6.5   C16,6.776123,15.776123,7,15.5,7S15,6.776123,15,6.5z M14.9350586,18.6171875C14.5576172,18.7441406,13.5981445,19,12,19   c-1.6000977,0-2.5595703-0.2563477-2.9350586-0.3828125l-0.3074341-0.9075317C9.6187134,17.8730469,10.6900024,18,12,18   c1.3099365,0,2.3811646-0.1269531,3.2423706-0.2903442L14.9350586,18.6171875z" fill="#ffff"/><path d="M10.4511719,4l-0.4022827,3.8875122C10.6292725,7.9528809,11.2683716,8,12,8   s1.3707275-0.0471191,1.9511108-0.1124878L13.5488281,4H10.4511719z M12,7c-0.5512695,0-1-0.4487305-1-1s0.4487305-1,1-1   s1,0.4487305,1,1S12.5512695,7,12,7z" fill="#ffff"/></g><g/><g/><g/><g/><g/><g/><g/><g/><g/><g/><g/><g/><g/><g/><g/></svg>